<svg width="265" height="160" viewBox="0 0 265 160" fill="none" xmlns="http://www.w3.org/2000/svg">
<g clip-path="url(#clip0_345_1161)">
<path d="M136.532 28.6387H70.3086C70.363 41.602 71.9808 55.2314 75.3321 69.0648C85.6171 111.571 109.62 144.989 136.532 159.04C163.438 144.996 187.413 111.571 197.698 69.0648C201.043 55.2314 202.661 41.602 202.722 28.6387H136.539H136.532Z" fill="#005E85"/>
<path d="M132.556 154.085C105.65 140.041 81.6474 106.623 71.3624 64.1166C68.0179 50.2832 66.3932 36.6469 66.3389 23.6904H132.556V154.085Z" fill="#CCDCE5"/>
<path d="M132.556 154.085C159.468 140.041 183.437 106.623 193.722 64.1166C197.066 50.2832 198.691 36.6469 198.745 23.6904H132.556V154.085Z" fill="#7FABC0"/>
<path d="M15.2201 77.7798C15.2201 41.5614 51.5813 10.8492 102.014 0C43.8115 7.34836 0 39.4269 0 77.8681C0 116.309 44.8651 149.142 104.094 155.981C52.5873 145.546 15.2201 114.481 15.2201 77.7798Z" fill="#005E85"/>
<path d="M249.776 77.7798C249.776 41.5682 213.408 10.8492 162.982 0C221.185 7.34836 264.996 39.4269 264.996 77.8681C264.996 116.309 220.138 149.142 160.902 155.981C212.409 145.546 249.776 114.474 249.776 77.773V77.7798Z" fill="#005E85"/>
<path d="M233.122 138.619C236.657 138.619 239.437 141.359 239.437 144.846C239.437 148.333 236.657 151.154 233.088 151.154C229.519 151.154 226.698 148.415 226.698 144.846C226.698 141.277 229.519 138.619 233.088 138.619H233.122ZM233.047 139.714C230.226 139.714 228.071 142.025 228.071 144.846C228.071 147.667 230.226 150.019 233.122 150.019C235.95 150.06 238.03 147.742 238.03 144.887C238.03 142.032 235.943 139.714 233.088 139.714H233.047ZM231.953 148.292H230.736V141.746C231.402 141.631 232.109 141.549 233.007 141.549C234.101 141.549 234.652 141.746 235.087 142.059C235.474 142.338 235.746 142.847 235.746 143.432C235.746 144.254 235.161 144.764 234.454 145.002V145.077C235.046 145.315 235.352 145.825 235.549 146.64C235.746 147.66 235.862 148.054 236.018 148.286H234.76C234.577 148.054 234.407 147.463 234.257 146.559C234.094 145.859 233.666 145.539 232.728 145.539H231.946V148.286L231.953 148.292ZM231.953 144.615H232.775C233.673 144.615 234.461 144.343 234.461 143.554C234.461 142.922 234.067 142.494 232.891 142.494C232.415 142.494 232.143 142.528 231.953 142.569V144.608V144.615Z" fill="#231F20"/>
<path d="M83.3536 106.296H67.5761C67.7936 103.496 67.9839 101.245 68.1471 99.546C68.6569 94.0331 69.1599 89.9 69.6426 87.1401L71.9334 71.0159L66.4476 87.2761L59.5139 106.296H47.1828L47.21 88.9347L47.6723 71.0907C47.1217 73.7078 46.5167 76.6036 45.8641 79.7714C45.2115 82.9391 44.6337 85.9505 44.1374 88.7988C43.6344 91.6471 42.8119 95.413 41.6631 100.097C41.296 101.66 40.7726 103.727 40.086 106.296H23.7578L40.0588 50.208H58.7322C58.773 52.3221 58.8002 53.9944 58.807 55.2383C58.8274 59.283 58.807 62.5867 58.7458 65.163C58.6846 67.7394 58.5691 70.9071 58.4127 74.6731C58.3515 76.053 58.2496 77.936 58.1068 80.322C58.8885 77.9768 59.4935 76.0938 59.9286 74.6731C61.3493 70.2613 62.5525 66.6246 63.545 63.7491C64.5307 60.8805 65.5707 58.039 66.6652 55.2383C67.1138 54.0011 67.7732 52.3221 68.6569 50.208H87.5342L83.3604 106.296H83.3536Z" fill="black"/>
<path d="M136.084 50.208L117.2 82.2797L112.965 106.296H97.6699L101.871 82.4837L93.8496 50.208H109.559L110.66 57.6175C110.756 58.1205 111.048 60.7785 111.531 65.5777C111.571 66.1283 111.673 66.8556 111.83 67.7733C112.509 66.2642 113.046 65.0474 113.434 64.1365C114.352 62.0768 115.412 59.8336 116.615 57.4136C117.111 56.4075 117.893 54.8508 118.954 52.7435C119.253 52.1045 119.701 51.2548 120.3 50.2012H136.077L136.084 50.208Z" fill="black"/>
<path d="M173.369 69.1941C172.56 73.7826 170.786 77.6301 168.047 80.7503C163.764 85.6107 157.632 88.0443 149.645 88.0443H148.136L144.914 106.303H129.755L139.646 50.2148H154.186C161.949 50.2148 167.435 52.0706 170.637 55.789C173.464 59.0451 174.375 63.518 173.369 69.2009V69.1941ZM158.373 68.6775C158.666 67.0257 158.407 65.5641 157.592 64.2998C156.783 63.0354 155.641 62.4032 154.172 62.4032H152.656L150.359 75.4277H151.671C153.323 75.4277 154.771 74.7615 156.021 73.4291C157.265 72.0968 158.054 70.5129 158.373 68.6775Z" fill="black"/>
<path d="M197.189 106.296H170.657L180.548 50.208H195.571L188.053 92.8571H199.561L197.189 106.296Z" fill="black"/>
<path d="M234.719 89.9001L231.035 105.338C229.152 106.119 227.561 106.657 226.269 106.956C224.978 107.255 223.435 107.404 221.64 107.404C213.966 107.404 208.643 104.393 205.659 98.3769C203.082 93.1834 202.498 86.5964 203.912 78.6022C205.353 70.4245 208.466 63.722 213.245 58.4809C218.71 52.5125 225.576 49.5215 233.842 49.5215C235.263 49.5215 236.466 49.6167 237.445 49.8002C238.424 49.9837 239.607 50.3032 240.993 50.7655L238.199 66.611L237.452 65.7817C235.99 64.1774 234.066 63.3685 231.674 63.3685C228.322 63.3685 225.508 64.9999 223.231 68.2629C221.328 70.9752 220.016 74.374 219.295 78.4595C218.561 82.6401 218.568 85.971 219.322 88.4522C220.308 91.7151 222.476 93.3465 225.834 93.3465C227.303 93.3465 228.601 93.163 229.723 92.7959C230.844 92.4288 232.061 91.783 233.373 90.8654L234.712 89.9001H234.719Z" fill="black"/>
</g>
<defs>
<clipPath id="clip0_345_1161">
<rect width="264.996" height="159.04" fill="white"/>
</clipPath>
</defs>
</svg>
